<svg xmlns="http://www.w3.org/2000/svg" version="1.1" xmlns:xlink="http://www.w3.org/1999/xlink" xmlns:svgjs="http://svgjs.dev/svgjs" width="2000" height="611" viewBox="0 0 2000 611"><g transform="matrix(1,0,0,1,-1.2121212121212466,1.1205126794135936)"><svg viewBox="0 0 396 121" data-background-color="#84fbf2" preserveAspectRatio="xMidYMid meet" height="611" width="2000" xmlns="http://www.w3.org/2000/svg" xmlns:xlink="http://www.w3.org/1999/xlink"><g id="tight-bounds" transform="matrix(1,0,0,1,0.2400000000000091,-0.22190185631595227)"><svg viewBox="0 0 395.52 121.44380371263192" height="121.44380371263192" width="395.52"><g><svg viewBox="0 0 397.4975999999999 122.05102273119506" height="121.44380371263192" width="395.52"><g><rect width="397.4975999999999" height="2.589938390007521" x="0" y="68.22219990323832" fill="#000000" opacity="1" stroke-width="0" stroke="transparent" fill-opacity="1" class="rect-qz-0" data-fill-palette-color="primary" rx="1%" id="qz-0" data-palette-color="#ffffff"></rect></g><g transform="matrix(1,0,0,1,0.9887999999999693,77.5920817225849)"><svg viewBox="0 0 395.52 44.45894100861017" height="44.45894100861017" width="395.52"><g id="textblocktransform"><svg viewBox="0 0 395.52 44.45894100861017" height="44.45894100861017" width="395.52" id="textblock"><g><svg viewBox="0 0 395.52 28.719325256862447" height="28.719325256862447" width="395.52"><g transform="matrix(1,0,0,1,0,0)"><svg width="395.52" viewBox="2.35 -36.3 654.3 47.349999999999994" height="28.719325256862447" data-palette-color="#ffffff"><g class="wordmark-text-0" data-fill-palette-color="primary" id="text-0"><path d="M25.15-30.7L22.1-27.05Q20.9-28.35 19.58-29.03 18.25-29.7 16.5-29.7L16.5-29.7Q14.35-29.7 12.88-28.73 11.4-27.75 10.5-26.03 9.6-24.3 9.2-22 8.8-19.7 8.8-17.05L8.8-17.05Q8.8-14.4 9.18-12.1 9.55-9.8 10.48-8.05 11.4-6.3 12.98-5.3 14.55-4.3 16.95-4.3L16.95-4.3Q18.1-4.3 19.15-4.5 20.2-4.7 21.08-4.93 21.95-5.15 22.53-5.35 23.1-5.55 23.25-5.6L23.25-5.6 24.65-1.4 24-1.15Q23.35-0.9 22.18-0.58 21-0.25 19.38 0.03 17.75 0.3 15.8 0.3L15.8 0.3Q9.1 0.3 5.73-3.98 2.35-8.25 2.35-16.5L2.35-16.5Q2.35-20.45 3.25-23.73 4.15-27 5.98-29.35 7.8-31.7 10.58-33 13.35-34.3 17.1-34.3L17.1-34.3Q20.1-34.3 22.03-33.2 23.95-32.1 25.15-30.7L25.15-30.7ZM39.3-25.5Q45.05-25.5 47.65-22.1 50.25-18.7 50.25-12.75L50.25-12.75Q50.25-9.95 49.55-7.53 48.85-5.1 47.42-3.33 46-1.55 43.85-0.53 41.7 0.5 38.85 0.5L38.85 0.5Q36 0.5 33.92-0.38 31.85-1.25 30.5-2.9 29.15-4.55 28.52-6.9 27.9-9.25 27.9-12.2L27.9-12.2Q27.9-15.05 28.6-17.48 29.3-19.9 30.72-21.68 32.15-23.45 34.3-24.48 36.45-25.5 39.3-25.5L39.3-25.5ZM38.8-21.3Q37.35-21.3 36.42-20.65 35.5-20 34.97-18.82 34.45-17.65 34.25-16.07 34.05-14.5 34.05-12.7L34.05-12.7Q34.05-10.85 34.27-9.2 34.5-7.55 35.1-6.33 35.7-5.1 36.72-4.4 37.75-3.7 39.35-3.7L39.35-3.7Q40.8-3.7 41.72-4.35 42.65-5 43.17-6.18 43.7-7.35 43.9-8.9 44.1-10.45 44.1-12.25L44.1-12.25Q44.1-14.1 43.87-15.75 43.65-17.4 43.05-18.65 42.45-19.9 41.42-20.6 40.4-21.3 38.8-21.3L38.8-21.3ZM89.45 0L83.8 0 83.8-16.3Q83.8-18.4 83.15-19.63 82.5-20.85 80.9-20.85L80.9-20.85Q79.95-20.85 78.97-20.33 78-19.8 77.2-18.8 76.4-17.8 75.9-16.4 75.4-15 75.4-13.3L75.4-13.3 75.4 0 69.75 0 69.75-16.3Q69.75-18.4 69.09-19.63 68.45-20.85 66.84-20.85L66.84-20.85Q65.84-20.85 64.87-20.28 63.9-19.7 63.12-18.6 62.35-17.5 61.87-15.93 61.4-14.35 61.4-12.4L61.4-12.4 61.4 0 55.7 0 55.7-12.6Q55.7-15.6 55.3-17.63 54.9-19.65 54.45-20.9L54.45-20.9Q53.9-22.35 53.25-23.25L53.25-23.25 57.75-25.05Q58.25-24.5 58.75-23.7L58.75-23.7Q59.15-23 59.55-21.98 59.95-20.95 60.2-19.65L60.2-19.65Q61.45-22.65 63.72-23.98 66-25.3 68.55-25.3L68.55-25.3Q71.09-25.3 72.52-24 73.95-22.7 74.65-20.65L74.65-20.65Q76-23.15 78.12-24.23 80.25-25.3 82.59-25.3L82.59-25.3Q84.55-25.3 85.87-24.68 87.2-24.05 87.97-22.93 88.75-21.8 89.09-20.23 89.45-18.65 89.45-16.7L89.45-16.7 89.45 0ZM101.84 10.05L96.14 11.05 96.14-12.6Q96.14-15.6 95.74-17.63 95.34-19.65 94.89-20.9L94.89-20.9Q94.34-22.35 93.69-23.25L93.69-23.25 98.19-25.05Q98.79-24.45 99.29-23.55L99.29-23.55Q99.69-22.8 100.09-21.73 100.49-20.65 100.69-19.2L100.69-19.2Q101.54-22.2 103.39-23.75 105.24-25.3 108.54-25.3L108.54-25.3Q110.89-25.3 112.62-24.43 114.34-23.55 115.47-21.93 116.59-20.3 117.14-18 117.69-15.7 117.69-12.9L117.69-12.9Q117.69-10.05 116.84-7.63 115.99-5.2 114.42-3.45 112.84-1.7 110.64-0.7 108.44 0.3 105.74 0.3L105.74 0.3Q104.79 0.3 103.82 0.2 102.84 0.1 101.84 0L101.84 0 101.84 10.05ZM107.59-21.3Q106.34-21.3 105.29-20.45 104.24-19.6 103.47-18.2 102.69-16.8 102.27-15.05 101.84-13.3 101.84-11.45L101.84-11.45 101.84-4.25Q102.34-4.1 103.34-3.9 104.34-3.7 105.09-3.7L105.09-3.7Q106.99-3.7 108.24-4.35 109.49-5 110.24-6.15 110.99-7.3 111.29-8.9 111.59-10.5 111.59-12.4L111.59-12.4Q111.59-14.15 111.49-15.75 111.39-17.35 110.97-18.6 110.54-19.85 109.74-20.58 108.94-21.3 107.59-21.3L107.59-21.3ZM128.04 0.2Q125.19 0.2 123.84-1.38 122.49-2.95 122.49-5.4L122.49-5.4 122.49-35.25 128.19-36.3 128.19-5.95Q128.19-4.8 128.64-4.35 129.09-3.9 129.94-3.9L129.94-3.9Q130.44-3.9 130.92-3.95 131.39-4 131.79-4.1L131.79-4.1Q132.24-4.2 132.59-4.3L132.59-4.3 133.29-0.7Q132.64-0.45 131.84-0.25L131.84-0.25Q131.14-0.05 130.19 0.08 129.24 0.2 128.04 0.2L128.04 0.2ZM157.39-23.85L157.39-12.05Q157.39-9.05 157.76-7.03 158.14-5 158.59-3.75L158.59-3.75Q159.14-2.25 159.79-1.4L159.79-1.4 155.34 0.4Q154.69-0.25 154.14-1.15L154.14-1.15Q153.69-1.95 153.29-3.08 152.89-4.2 152.79-5.75L152.79-5.75Q151.94-2.75 150.06-1.23 148.19 0.3 144.99 0.3L144.99 0.3Q142.64 0.3 140.91-0.58 139.19-1.45 138.04-3.08 136.89-4.7 136.34-7 135.79-9.3 135.79-12.1L135.79-12.1Q135.79-14.95 136.66-17.38 137.54-19.8 139.11-21.55 140.69-23.3 142.89-24.3 145.09-25.3 147.74-25.3L147.74-25.3Q149.24-25.3 150.86-25.08 152.49-24.85 153.89-24.6 155.29-24.35 156.26-24.13 157.24-23.9 157.39-23.85L157.39-23.85ZM145.94-3.7Q147.19-3.7 148.24-4.55 149.29-5.4 150.06-6.78 150.84-8.15 151.26-9.93 151.69-11.7 151.69-13.55L151.69-13.55 151.69-20.75Q151.19-20.9 150.19-21.1 149.19-21.3 148.39-21.3L148.39-21.3Q146.49-21.3 145.26-20.65 144.04-20 143.29-18.85 142.54-17.7 142.24-16.1 141.94-14.5 141.94-12.6L141.94-12.6Q141.94-10.85 142.04-9.25 142.14-7.65 142.56-6.4 142.99-5.15 143.79-4.42 144.59-3.7 145.94-3.7L145.94-3.7ZM169.34 0.2Q166.69 0.2 165.29-1.38 163.89-2.95 163.89-5.45L163.89-5.45 163.89-24.9 169.59-24.9 169.59-5.95Q169.59-4.8 169.94-4.4 170.29-4 170.99-4L170.99-4Q171.19-4 171.41-4 171.64-4 171.84-4.05L171.84-4.05Q172.04-4.05 172.29-4.1L172.29-4.1 172.89-0.5Q172.54-0.3 171.99-0.15L171.99-0.15Q171.54 0 170.86 0.1 170.19 0.2 169.34 0.2L169.34 0.2ZM166.84-36Q168.44-36 169.29-35.05 170.14-34.1 170.14-32.6L170.14-32.6Q170.14-31.1 169.26-30.1 168.39-29.1 166.69-29.1L166.69-29.1Q165.09-29.1 164.21-30.08 163.34-31.05 163.34-32.45L163.34-32.45Q163.34-34 164.21-35 165.09-36 166.84-36L166.84-36ZM198.03 0L192.38 0 192.38-16.15Q192.38-18.25 191.63-19.53 190.88-20.8 189.08-20.8L189.08-20.8Q187.93-20.8 186.86-20.23 185.78-19.65 184.93-18.55 184.08-17.45 183.56-15.88 183.03-14.3 183.03-12.35L183.03-12.35 183.03 0 177.33 0 177.33-12.6Q177.33-15.6 176.93-17.63 176.53-19.65 176.08-20.9L176.08-20.9Q175.53-22.35 174.88-23.25L174.88-23.25 179.38-25.05Q179.88-24.5 180.38-23.7L180.38-23.7Q180.78-23 181.18-21.98 181.58-20.95 181.83-19.65L181.83-19.65Q183.13-22.65 185.58-23.98 188.03-25.3 190.73-25.3L190.73-25.3Q194.58-25.3 196.31-22.98 198.03-20.65 198.03-16.7L198.03-16.7 198.03 0Z" fill="#000000" data-fill-palette-color="primary"></path><path d="M238.88-13L233.28 0 229.08 0 223.43-12.85Q223.18-13.4 222.8-14.35 222.43-15.3 221.98-16.45 221.53-17.6 221.03-18.88 220.53-20.15 220.08-21.45L220.08-21.45Q220.08-20.15 220.05-18.88 220.03-17.6 219.98-16.48 219.93-15.35 219.9-14.48 219.88-13.6 219.88-13.1L219.88-13.1 219.38 0 213.78 0 215.78-33.95 220.43-33.95 228.98-12.75Q229.43-11.6 230-10.25 230.58-8.9 231.08-7.6L231.08-7.6Q231.58-8.9 232.13-10.23 232.68-11.55 233.18-12.75L233.18-12.75 241.78-33.95 246.33-33.95 248.33 0 242.78 0 242.23-12.95Q242.18-14.2 242.1-16.53 242.03-18.85 241.98-21.25L241.98-21.25Q241.53-20 241.05-18.75 240.58-17.5 240.18-16.4 239.78-15.3 239.43-14.4 239.08-13.5 238.88-13L238.88-13ZM274.68-23.85L274.68-12.05Q274.68-9.05 275.05-7.03 275.43-5 275.88-3.75L275.88-3.75Q276.43-2.25 277.08-1.4L277.08-1.4 272.63 0.4Q271.98-0.25 271.43-1.15L271.43-1.15Q270.98-1.95 270.58-3.08 270.18-4.2 270.08-5.75L270.08-5.75Q269.23-2.75 267.35-1.23 265.48 0.3 262.28 0.3L262.28 0.3Q259.93 0.3 258.2-0.58 256.48-1.45 255.33-3.08 254.18-4.7 253.63-7 253.08-9.3 253.08-12.1L253.08-12.1Q253.08-14.95 253.95-17.38 254.83-19.8 256.4-21.55 257.98-23.3 260.18-24.3 262.38-25.3 265.03-25.3L265.03-25.3Q266.53-25.3 268.15-25.08 269.78-24.85 271.18-24.6 272.58-24.35 273.55-24.13 274.53-23.9 274.68-23.85L274.68-23.85ZM263.23-3.7Q264.48-3.7 265.53-4.55 266.58-5.4 267.35-6.78 268.13-8.15 268.55-9.93 268.98-11.7 268.98-13.55L268.98-13.55 268.98-20.75Q268.48-20.9 267.48-21.1 266.48-21.3 265.68-21.3L265.68-21.3Q263.78-21.3 262.55-20.65 261.33-20 260.58-18.85 259.83-17.7 259.53-16.1 259.23-14.5 259.23-12.6L259.23-12.6Q259.23-10.85 259.33-9.25 259.43-7.65 259.85-6.4 260.28-5.15 261.08-4.42 261.88-3.7 263.23-3.7L263.23-3.7ZM302.52 0L296.87 0 296.87-16.15Q296.87-18.25 296.12-19.53 295.37-20.8 293.57-20.8L293.57-20.8Q292.42-20.8 291.35-20.23 290.27-19.65 289.42-18.55 288.57-17.45 288.05-15.88 287.52-14.3 287.52-12.35L287.52-12.35 287.52 0 281.82 0 281.82-12.6Q281.82-15.6 281.42-17.63 281.02-19.65 280.57-20.9L280.57-20.9Q280.02-22.35 279.37-23.25L279.37-23.25 283.87-25.05Q284.37-24.5 284.87-23.7L284.87-23.7Q285.27-23 285.67-21.98 286.07-20.95 286.32-19.65L286.32-19.65Q287.62-22.65 290.07-23.98 292.52-25.3 295.22-25.3L295.22-25.3Q299.07-25.3 300.8-22.98 302.52-20.65 302.52-16.7L302.52-16.7 302.52 0ZM328.92-23.85L328.92-12.05Q328.92-9.05 329.3-7.03 329.67-5 330.12-3.75L330.12-3.75Q330.67-2.25 331.32-1.4L331.32-1.4 326.87 0.4Q326.22-0.25 325.67-1.15L325.67-1.15Q325.22-1.95 324.82-3.08 324.42-4.2 324.32-5.75L324.32-5.75Q323.47-2.75 321.6-1.23 319.72 0.3 316.52 0.3L316.52 0.3Q314.17 0.3 312.45-0.58 310.72-1.45 309.57-3.08 308.42-4.7 307.87-7 307.32-9.3 307.32-12.1L307.32-12.1Q307.32-14.95 308.2-17.38 309.07-19.8 310.65-21.55 312.22-23.3 314.42-24.3 316.62-25.3 319.27-25.3L319.27-25.3Q320.77-25.3 322.4-25.08 324.02-24.85 325.42-24.6 326.82-24.35 327.8-24.13 328.77-23.9 328.92-23.85L328.92-23.85ZM317.47-3.7Q318.72-3.7 319.77-4.55 320.82-5.4 321.6-6.78 322.37-8.15 322.8-9.93 323.22-11.7 323.22-13.55L323.22-13.55 323.22-20.75Q322.72-20.9 321.72-21.1 320.72-21.3 319.92-21.3L319.92-21.3Q318.02-21.3 316.8-20.65 315.57-20 314.82-18.85 314.07-17.7 313.77-16.1 313.47-14.5 313.47-12.6L313.47-12.6Q313.47-10.85 313.57-9.25 313.67-7.65 314.1-6.4 314.52-5.15 315.32-4.42 316.12-3.7 317.47-3.7L317.47-3.7ZM337.97 8.75L339.37 4.4Q340.12 4.7 340.97 5.03 341.82 5.35 342.77 5.65 343.72 5.95 344.69 6.15 345.67 6.35 346.62 6.35L346.62 6.35Q349.42 6.35 350.67 4.67 351.92 3 351.92 0.35L351.92 0.35Q351.92-2.25 350.82-4.9L350.82-4.9Q349.97-2.35 348.14-1.03 346.32 0.3 343.32 0.3L343.32 0.3Q340.97 0.3 339.24-0.58 337.52-1.45 336.37-3.08 335.22-4.7 334.67-7 334.12-9.3 334.12-12.1L334.12-12.1Q334.12-14.95 334.99-17.38 335.87-19.8 337.44-21.55 339.02-23.3 341.22-24.3 343.42-25.3 346.07-25.3L346.07-25.3Q347.27-25.3 348.64-25.15 350.02-25 351.34-24.78 352.67-24.55 353.84-24.3 355.02-24.05 355.87-23.85L355.87-23.85 355.62-10.1Q355.57-8.6 355.79-7.35 356.02-6.1 356.32-4.88 356.62-3.65 356.87-2.4 357.12-1.15 357.12 0.35L357.12 0.35Q357.12 5.65 354.42 8.25 351.72 10.85 347.12 10.85L347.12 10.85Q345.62 10.85 344.12 10.58 342.62 10.3 341.34 9.95 340.07 9.6 339.17 9.25 338.27 8.9 337.97 8.75L337.97 8.75ZM344.27-3.7Q345.47-3.7 346.49-4.5 347.52-5.3 348.32-6.63 349.12-7.95 349.57-9.65 350.02-11.35 350.02-13.15L350.02-13.15 350.02-20.75Q349.52-20.9 348.52-21.1 347.52-21.3 346.72-21.3L346.72-21.3Q344.82-21.3 343.59-20.65 342.37-20 341.62-18.85 340.87-17.7 340.57-16.1 340.27-14.5 340.27-12.6L340.27-12.6Q340.27-10.85 340.37-9.25 340.47-7.65 340.89-6.4 341.32-5.15 342.12-4.42 342.92-3.7 344.27-3.7L344.27-3.7ZM360.67-11.85Q360.67-15.2 361.59-17.75 362.52-20.3 364.14-22.03 365.77-23.75 367.97-24.63 370.17-25.5 372.72-25.5L372.72-25.5Q374.97-25.5 376.54-24.95 378.12-24.4 379.12-23.45 380.12-22.5 380.59-21.2 381.07-19.9 381.07-18.4L381.07-18.4Q381.07-16.6 380.07-14.98 379.07-13.35 377.19-12.13 375.32-10.9 372.67-10.18 370.02-9.45 366.72-9.4L366.72-9.4Q366.87-8.25 367.19-7.23 367.52-6.2 368.14-5.43 368.77-4.65 369.77-4.2 370.77-3.75 372.27-3.75L372.27-3.75Q373.37-3.75 374.62-4 375.87-4.25 376.92-4.6L376.92-4.6Q378.17-5 379.37-5.5L379.37-5.5 380.87-1.95Q379.57-1.3 378.07-0.8L378.07-0.8Q376.77-0.35 375.07 0 373.37 0.35 371.47 0.35L371.47 0.35Q368.57 0.35 366.52-0.53 364.47-1.4 363.17-3 361.87-4.6 361.27-6.85 360.67-9.1 360.67-11.85L360.67-11.85ZM372.27-21.6Q370.62-21.6 369.54-20.83 368.47-20.05 367.82-18.82 367.17-17.6 366.89-16.07 366.62-14.55 366.57-13L366.57-13Q368.97-13.1 370.64-13.63 372.32-14.15 373.37-14.93 374.42-15.7 374.89-16.6 375.37-17.5 375.37-18.4L375.37-18.4Q375.37-19.85 374.52-20.73 373.67-21.6 372.27-21.6L372.27-21.6ZM420.01 0L414.36 0 414.36-16.3Q414.36-18.4 413.71-19.63 413.06-20.85 411.46-20.85L411.46-20.85Q410.51-20.85 409.54-20.33 408.56-19.8 407.76-18.8 406.96-17.8 406.46-16.4 405.96-15 405.96-13.3L405.96-13.3 405.96 0 400.31 0 400.31-16.3Q400.31-18.4 399.66-19.63 399.01-20.85 397.41-20.85L397.41-20.85Q396.41-20.85 395.44-20.28 394.46-19.7 393.69-18.6 392.91-17.5 392.44-15.93 391.96-14.35 391.96-12.4L391.96-12.4 391.96 0 386.26 0 386.26-12.6Q386.26-15.6 385.86-17.63 385.46-19.65 385.01-20.9L385.01-20.9Q384.46-22.35 383.81-23.25L383.81-23.25 388.31-25.05Q388.81-24.5 389.31-23.7L389.31-23.7Q389.71-23 390.11-21.98 390.51-20.95 390.76-19.65L390.76-19.65Q392.01-22.65 394.29-23.98 396.56-25.3 399.11-25.3L399.11-25.3Q401.66-25.3 403.09-24 404.51-22.7 405.21-20.65L405.21-20.65Q406.56-23.15 408.69-24.23 410.81-25.3 413.16-25.3L413.16-25.3Q415.11-25.3 416.44-24.68 417.76-24.05 418.54-22.93 419.31-21.8 419.66-20.23 420.01-18.65 420.01-16.7L420.01-16.7 420.01 0ZM424.76-11.85Q424.76-15.2 425.69-17.75 426.61-20.3 428.24-22.03 429.86-23.75 432.06-24.63 434.26-25.5 436.81-25.5L436.81-25.5Q439.06-25.5 440.64-24.95 442.21-24.4 443.21-23.45 444.21-22.5 444.69-21.2 445.16-19.9 445.16-18.4L445.16-18.4Q445.16-16.6 444.16-14.98 443.16-13.35 441.29-12.13 439.41-10.9 436.76-10.18 434.11-9.45 430.81-9.4L430.81-9.4Q430.96-8.25 431.29-7.23 431.61-6.2 432.24-5.43 432.86-4.65 433.86-4.2 434.86-3.75 436.36-3.75L436.36-3.75Q437.46-3.75 438.71-4 439.96-4.25 441.01-4.6L441.01-4.6Q442.26-5 443.46-5.5L443.46-5.5 444.96-1.95Q443.66-1.3 442.16-0.8L442.16-0.8Q440.86-0.35 439.16 0 437.46 0.35 435.56 0.35L435.56 0.35Q432.66 0.35 430.61-0.53 428.56-1.4 427.26-3 425.96-4.6 425.36-6.85 424.76-9.1 424.76-11.85L424.76-11.85ZM436.36-21.6Q434.71-21.6 433.64-20.83 432.56-20.05 431.91-18.82 431.26-17.6 430.99-16.07 430.71-14.55 430.66-13L430.66-13Q433.06-13.1 434.74-13.63 436.41-14.15 437.46-14.93 438.51-15.7 438.99-16.6 439.46-17.5 439.46-18.4L439.46-18.4Q439.46-19.85 438.61-20.73 437.76-21.6 436.36-21.6L436.36-21.6ZM471.06 0L465.41 0 465.41-16.15Q465.41-18.25 464.66-19.53 463.91-20.8 462.11-20.8L462.11-20.8Q460.96-20.8 459.88-20.23 458.81-19.65 457.96-18.55 457.11-17.45 456.58-15.88 456.06-14.3 456.06-12.35L456.06-12.35 456.06 0 450.36 0 450.36-12.6Q450.36-15.6 449.96-17.63 449.56-19.65 449.11-20.9L449.11-20.9Q448.56-22.35 447.91-23.25L447.91-23.25 452.41-25.05Q452.91-24.5 453.41-23.7L453.41-23.7Q453.81-23 454.21-21.98 454.61-20.95 454.86-19.65L454.86-19.65Q456.16-22.65 458.61-23.98 461.06-25.3 463.76-25.3L463.76-25.3Q467.61-25.3 469.33-22.98 471.06-20.65 471.06-16.7L471.06-16.7 471.06 0ZM474.61-20.85L474.61-24.9 479.11-24.9 480.11-30.75 484.81-31.8 484.81-24.9 490.96-24.9 490.26-20.85 484.81-20.85 484.81-6.05Q484.81-4.75 485.51-4.38 486.21-4 487.06-4L487.06-4Q487.76-4 488.46-4.1 489.16-4.2 489.71-4.35L489.71-4.35Q490.36-4.5 490.96-4.7L490.96-4.7 491.91-0.95 491.46-0.8Q491.01-0.6 490.13-0.38 489.26-0.15 488.08 0.03 486.91 0.2 485.51 0.2L485.51 0.2Q484.11 0.2 482.93-0.1 481.76-0.4 480.91-1.07 480.06-1.75 479.58-2.8 479.11-3.85 479.11-5.4L479.11-5.4 479.11-20.85 474.61-20.85Z" fill="#000000" data-fill-palette-color="primary"></path><path d="M517.91-34.3L517.91-34.3Q519.66-34.3 521.26-33.98 522.86-33.65 524.18-33.23 525.51-32.8 526.43-32.35 527.36-31.9 527.71-31.65L527.71-31.65 525.26-27.35 524.61-27.7Q523.96-28.05 522.91-28.5 521.86-28.95 520.61-29.3 519.36-29.65 518.21-29.65L518.21-29.65Q516.41-29.65 515.08-28.8 513.76-27.95 513.76-26.15L513.76-26.15Q513.76-23.9 515.21-22.48 516.66-21.05 519.76-19.85L519.76-19.85Q521.76-19.05 523.33-18.18 524.91-17.3 526.01-16.15 527.11-15 527.68-13.5 528.26-12 528.26-9.9L528.26-9.9Q528.26-8 527.53-6.15 526.81-4.3 525.38-2.88 523.96-1.45 521.86-0.58 519.76 0.3 517.01 0.3L517.01 0.3Q515.06 0.3 513.31-0.1 511.56-0.5 510.13-1.03 508.71-1.55 507.68-2.1 506.66-2.65 506.16-2.95L506.16-2.95 508.26-7.55 509.16-7.05Q510.06-6.55 511.36-5.95 512.66-5.35 514.11-4.85 515.56-4.35 516.61-4.35L516.61-4.35Q519.26-4.35 520.56-5.65 521.86-6.95 521.86-9.3L521.86-9.3Q521.86-10.4 521.51-11.23 521.16-12.05 520.51-12.65 519.86-13.25 518.93-13.73 518.01-14.2 516.86-14.65L516.86-14.65Q514.61-15.6 512.83-16.55 511.06-17.5 509.81-18.73 508.56-19.95 507.91-21.53 507.26-23.1 507.26-25.3L507.26-25.3Q507.26-27.15 508.06-28.78 508.86-30.4 510.26-31.63 511.66-32.85 513.61-33.58 515.56-34.3 517.91-34.3ZM553.86-24.9L553.61-10.1Q553.61-8.6 553.83-7.35 554.06-6.1 554.33-4.88 554.61-3.65 554.86-2.4 555.11-1.15 555.11 0.35L555.11 0.35Q555.11 5.65 552.41 8.25 549.71 10.85 545.11 10.85L545.11 10.85Q543.61 10.85 542.11 10.58 540.61 10.3 539.33 9.95 538.06 9.6 537.16 9.25 536.26 8.9 535.96 8.75L535.96 8.75 537.36 4.4Q538.06 4.7 538.93 5.03 539.81 5.35 540.73 5.65 541.66 5.95 542.66 6.15 543.66 6.35 544.61 6.35L544.61 6.35Q547.41 6.35 548.66 4.67 549.91 3 549.91 0.35L549.91 0.35Q549.91-2.05 548.91-4.6L548.91-4.6Q547.51-1.95 545.18-0.83 542.86 0.3 540.31 0.3L540.31 0.3Q536.36 0.3 534.68-2 533.01-4.3 533.01-8.3L533.01-8.3 533.01-24.9 538.71-24.9 538.71-8.45Q538.71-6.35 539.46-5.15 540.21-3.95 542.01-3.95L542.01-3.95Q542.96-3.95 544.03-4.5 545.11-5.05 545.98-6.03 546.86-7 547.43-8.38 548.01-9.75 548.01-11.35L548.01-11.35 548.01-24.9 553.86-24.9ZM567.5-25.5L567.5-25.5Q568.95-25.5 570.35-25.2 571.75-24.9 572.85-24.5L572.85-24.5Q574.15-24.05 575.25-23.55L575.25-23.55 573.55-19.65Q572.55-20.1 571.55-20.45L571.55-20.45Q570.7-20.75 569.68-21.03 568.65-21.3 567.65-21.3L567.65-21.3Q566.5-21.3 565.68-20.75 564.85-20.2 564.85-19.1L564.85-19.1Q564.85-16.25 569-14.65L569-14.65Q570.55-14.05 571.8-13.38 573.05-12.7 573.93-11.8 574.8-10.9 575.25-9.73 575.7-8.55 575.7-6.95L575.7-6.95Q575.7-5.55 575.13-4.2 574.55-2.85 573.43-1.8 572.3-0.75 570.68-0.13 569.05 0.5 567 0.5L567 0.5Q565.35 0.5 563.75 0.13 562.15-0.25 560.88-0.7 559.6-1.15 558.85-1.55L558.85-1.55 558.1-1.9 559.95-6.1 560.6-5.75Q561.25-5.35 562.25-4.9 563.25-4.45 564.4-4.08 565.55-3.7 566.5-3.7L566.5-3.7Q568.25-3.7 569.1-4.4 569.95-5.1 569.95-6.25L569.95-6.25Q569.95-7.55 569.03-8.63 568.1-9.7 566.25-10.4L566.25-10.4Q562.4-11.85 560.73-13.7 559.05-15.55 559.05-18.5L559.05-18.5Q559.05-19.9 559.7-21.18 560.35-22.45 561.48-23.43 562.6-24.4 564.15-24.95 565.7-25.5 567.5-25.5ZM578-20.85L578-24.9 582.5-24.9 583.5-30.75 588.2-31.8 588.2-24.9 594.35-24.9 593.65-20.85 588.2-20.85 588.2-6.05Q588.2-4.75 588.9-4.38 589.6-4 590.45-4L590.45-4Q591.15-4 591.85-4.1 592.55-4.2 593.1-4.35L593.1-4.35Q593.75-4.5 594.35-4.7L594.35-4.7 595.3-0.95 594.85-0.8Q594.4-0.6 593.53-0.38 592.65-0.15 591.47 0.03 590.3 0.2 588.9 0.2L588.9 0.2Q587.5 0.2 586.33-0.1 585.15-0.4 584.3-1.07 583.45-1.75 582.97-2.8 582.5-3.85 582.5-5.4L582.5-5.4 582.5-20.85 578-20.85ZM597.3-11.85Q597.3-15.2 598.22-17.75 599.15-20.3 600.77-22.03 602.4-23.75 604.6-24.63 606.8-25.5 609.35-25.5L609.35-25.5Q611.6-25.5 613.17-24.95 614.75-24.4 615.75-23.45 616.75-22.5 617.22-21.2 617.7-19.9 617.7-18.4L617.7-18.4Q617.7-16.6 616.7-14.98 615.7-13.35 613.82-12.13 611.95-10.9 609.3-10.18 606.65-9.45 603.35-9.4L603.35-9.4Q603.5-8.25 603.82-7.23 604.15-6.2 604.77-5.43 605.4-4.65 606.4-4.2 607.4-3.75 608.9-3.75L608.9-3.75Q610-3.75 611.25-4 612.5-4.25 613.55-4.6L613.55-4.6Q614.8-5 616-5.5L616-5.5 617.5-1.95Q616.2-1.3 614.7-0.8L614.7-0.8Q613.4-0.35 611.7 0 610 0.35 608.1 0.35L608.1 0.35Q605.2 0.35 603.15-0.53 601.1-1.4 599.8-3 598.5-4.6 597.9-6.85 597.3-9.1 597.3-11.85L597.3-11.85ZM608.9-21.6Q607.25-21.6 606.17-20.83 605.1-20.05 604.45-18.82 603.8-17.6 603.52-16.07 603.25-14.55 603.2-13L603.2-13Q605.6-13.1 607.27-13.63 608.95-14.15 610-14.93 611.05-15.7 611.52-16.6 612-17.5 612-18.4L612-18.4Q612-19.85 611.15-20.73 610.3-21.6 608.9-21.6L608.9-21.6ZM656.65 0L651 0 651-16.3Q651-18.4 650.35-19.63 649.7-20.85 648.1-20.85L648.1-20.85Q647.15-20.85 646.17-20.33 645.2-19.8 644.4-18.8 643.6-17.8 643.1-16.4 642.6-15 642.6-13.3L642.6-13.3 642.6 0 636.95 0 636.95-16.3Q636.95-18.4 636.3-19.63 635.65-20.85 634.05-20.85L634.05-20.85Q633.05-20.85 632.07-20.28 631.1-19.7 630.32-18.6 629.55-17.5 629.07-15.93 628.6-14.35 628.6-12.4L628.6-12.4 628.6 0 622.9 0 622.9-12.6Q622.9-15.6 622.5-17.63 622.1-19.65 621.65-20.9L621.65-20.9Q621.1-22.35 620.45-23.25L620.45-23.25 624.95-25.05Q625.45-24.5 625.95-23.7L625.95-23.7Q626.35-23 626.75-21.98 627.15-20.95 627.4-19.65L627.4-19.65Q628.65-22.65 630.92-23.98 633.2-25.3 635.75-25.3L635.75-25.3Q638.3-25.3 639.72-24 641.15-22.7 641.85-20.65L641.85-20.65Q643.2-23.15 645.32-24.23 647.45-25.3 649.8-25.3L649.8-25.3Q651.75-25.3 653.07-24.68 654.4-24.05 655.17-22.93 655.95-21.8 656.3-20.23 656.65-18.65 656.65-16.7L656.65-16.7 656.65 0Z" fill="#000000" data-fill-palette-color="primary"></path></g></svg></g></svg></g><g transform="matrix(1,0,0,1,75.54432,35.4992686862015)"><svg viewBox="0 0 244.43135999999998 8.959672322408657" height="8.959672322408657" width="244.43135999999998"><g transform="matrix(1,0,0,1,0,0)"><svg width="244.43135999999998" viewBox="0.5 -39 1275.29 46.75" height="8.959672322408657" data-palette-color="#ffffff"><path d="M15.75 0L15.75 0Q13.35 0 12.6-0.35 11.85-0.7 11.55-1.55L11.55-1.55 0.5-32.05Q0.5-33 4.08-34.25 7.65-35.5 11.3-35.5L11.3-35.5Q16-35.5 16.3-32.55L16.3-32.55 18-16.7 18.7-16.7 20.1-32.55Q20.35-35.5 26.85-35.5L26.85-35.5Q29.35-35.5 30.2-34.83 31.05-34.15 31.15-33.05L31.15-33.05 32.8-16.7 33.5-16.7 34.8-32.55Q34.95-34 38.23-34.75 41.5-35.5 44.73-35.5 47.95-35.5 49.13-34.55 50.3-33.6 50.3-32.55L50.3-32.55 39.6-1.55Q39.05 0 32.2 0L32.2 0Q30.15 0 29.45-0.35 28.75-0.7 28.5-1.55L28.5-1.55 25.9-10.25 25.3-10.25 22.65-1.55Q22.2 0 15.75 0ZM68.8-1.2L68.8-1.2 68.8-15.1Q68.8-18.85 68.5-20.55 68.2-22.25 67.05-22.25L67.05-22.25Q66.05-22.25 66.05-20.9L66.05-20.9 66.05-1.2Q66.05-0.65 63.15-0.33 60.25 0 57.2 0 54.15 0 53.35-0.28 52.55-0.55 52.55-1.2L52.55-1.2 52.55-35.85Q52.55-36.9 55.45-37.95 58.35-39 61.55-39L61.55-39Q64.9-39 65.8-37.75L65.8-37.75Q66.1-37.35 66.1-36.9L66.1-36.9 66.1-29.55 65.55-26.1 65.9-26.1Q66.6-27.15 68.1-27.95L68.1-27.95Q70.9-29.45 74.2-29.45L74.2-29.45Q78.95-29.45 80.62-26.43 82.3-23.4 82.3-16.6L82.3-16.6 82.3-1.2Q82.3-0.65 79.37-0.33 76.45 0 73.42 0 70.4 0 69.6-0.28 68.8-0.55 68.8-1.2ZM100.6-11.3L98.95-11.3Q98.95-8.05 102.05-8.05L102.05-8.05Q103.85-8.05 106.75-9.28 109.65-10.5 109.8-10.5L109.8-10.5Q110.75-10.5 112.3-7.65 113.85-4.8 113.85-3.45L113.85-3.45Q113.85-1.5 109.85-0.5 105.85 0.5 102.02 0.5 98.2 0.5 95.62-0.1 93.05-0.7 91.42-1.63 89.8-2.55 88.57-3.9 87.35-5.25 86.75-6.48 86.15-7.7 85.8-9.2L85.8-9.2Q85.3-11.4 85.3-13.75L85.3-13.75Q85.3-22.85 90.05-26.3L90.05-26.3Q92.4-28.05 95.3-28.75 98.2-29.45 102.15-29.45L102.15-29.45Q114.8-29.45 114.8-20.65L114.8-20.65Q114.8-11.3 100.6-11.3L100.6-11.3ZM98.85-18.6L98.85-18.6 98.85-15.3Q100.3-15.3 101.22-16.45 102.15-17.6 102.15-19.25L102.15-19.25Q102.15-22.25 100.6-22.25L100.6-22.25Q98.85-22.25 98.85-18.6ZM147.94-16.6L147.94-16.6 147.94-1.2Q147.94-0.65 145.09-0.33 142.24 0 139.22 0 136.19 0 135.32-0.28 134.44-0.55 134.44-1.2L134.44-1.2 134.44-17.1Q134.44-19.35 134.27-20.05 134.09-20.75 133.94-21.3L133.94-21.3Q133.59-22.25 132.69-22.25L132.69-22.25Q131.29-22.25 131.29-20.9L131.29-20.9 131.29-1.2Q131.29-0.65 128.47-0.33 125.64 0 122.62 0 119.59 0 118.69-0.28 117.79-0.55 117.79-1.2L117.79-1.2 117.79-25.85Q117.79-26.9 120.67-27.95 123.54-29 126.74-29 129.94-29 130.34-27.15L130.34-27.15 130.79-24.95 131.14-24.95Q132.59-27.85 136.14-29L136.14-29Q137.59-29.45 139.34-29.45L139.34-29.45Q144.39-29.45 146.17-26.43 147.94-23.4 147.94-16.6ZM179.54-3.25L179.54-3.25 179.54-6.2 179.14-6.2Q178.89-5.95 178.39-5.55 177.89-5.15 176.04-4.5 174.19-3.85 171.91-3.85 169.64-3.85 167.91-4.58 166.19-5.3 165.19-6.53 164.19-7.75 163.64-9.8L163.64-9.8Q162.69-13.05 162.69-19L162.69-19 162.69-25.9Q162.69-26.95 165.64-27.98 168.59-29 171.84-29L171.84-29Q176.19-29 176.19-26.75L176.19-26.75 176.19-20.45Q176.19-10.45 177.79-10.45L177.79-10.45Q178.74-10.45 178.74-11.8L178.74-11.8 178.74-25.9Q178.74-26.95 181.89-27.98 185.04-29 188.64-29 192.24-29 192.24-27.05L192.24-27.05 192.24-3.4Q192.24 7.75 177.14 7.75L177.14 7.75Q169.19 7.75 166.34 6.2L166.34 6.2Q165.09 5.5 165.09 4.75L165.09 4.75Q165.09 3.55 166.09 0.73 167.09-2.1 167.94-2.1L167.94-2.1Q168.14-2.1 169.34-1.8L169.34-1.8Q173.04-0.8 175.51-0.8 177.99-0.8 178.76-1.35 179.54-1.9 179.54-3.25ZM211.14 0.45L211.14 0.45Q207.39 0.45 204.69-0.2 201.99-0.85 199.79-2.5L199.79-2.5Q195.24-5.8 195.24-14.8L195.24-14.8Q195.24-22.8 199.89-26.25L199.89-26.25Q204.24-29.45 211.14-29.45L211.14-29.45Q214.09-29.45 216.19-29.18 218.29-28.9 220.46-28 222.64-27.1 223.96-25.55 225.29-24 226.14-21.28 226.99-18.55 226.99-14.8L226.99-14.8Q226.99-7.2 222.69-3.38 218.39 0.45 211.14 0.45ZM209.39-9.3Q209.74-7.5 210.11-7.15 210.49-6.8 211.11-6.8 211.74-6.8 212.11-7.15 212.49-7.5 212.81-9.3 213.14-11.1 213.14-13.83 213.14-16.55 213.01-18.03 212.89-19.5 212.71-20.3 212.54-21.1 212.24-21.55L212.24-21.55Q211.79-22.2 211.16-22.2 210.54-22.2 210.14-21.83 209.74-21.45 209.39-19.63 209.04-17.8 209.04-14.45 209.04-11.1 209.39-9.3ZM240.03 0.45L240.03 0.45Q234.43 0.45 232.21-2.45 229.98-5.35 229.98-12.55L229.98-12.55 229.98-26.15Q229.98-27.15 232.93-28.08 235.88-29 239.13-29L239.13-29Q243.48-29 243.48-26.75L243.48-26.75 243.48-14.05Q243.48-10.25 243.78-8.53 244.08-6.8 245.28-6.8L245.28-6.8Q246.88-6.8 246.88-8.15L246.88-8.15 246.88-26.15Q246.88-27.2 249.98-28.1 253.08-29 256.73-29 260.38-29 260.38-27.05L260.38-27.05 260.38-1.3Q260.38-0.6 257.23-0.3 254.08 0 251.03 0 247.98 0 247.93-0.8L247.93-0.8 247.43-4.05 247.03-4.05Q246.58-2.25 245.23-1.1L245.23-1.1Q244.53-0.5 243.16-0.03 241.78 0.45 240.03 0.45ZM281.58-0.85L281.58-0.85Q280.38-1.4 279-2.5 277.63-3.6 276.73-5.1L276.73-5.1Q274.63-8.7 274.63-14.5L274.63-14.5Q274.63-18.1 275.78-20.93 276.93-23.75 278.58-25.3 280.23-26.85 282.38-27.85L282.38-27.85Q285.83-29.45 289.28-29.45L289.28-29.45Q295.08-29.45 297.35-28.55 299.63-27.65 299.63-25.5 299.63-23.35 298.85-20.93 298.08-18.5 296.83-18.5L296.83-18.5Q296.43-18.5 294.4-19.35 292.38-20.2 290.9-20.2 289.43-20.2 288.65-19.03 287.88-17.85 287.88-14.48 287.88-11.1 288.58-9.88 289.28-8.65 290.75-8.65 292.23-8.65 294.43-9.65 296.63-10.65 296.88-10.65L296.88-10.65Q297.83-10.65 298.7-8.4 299.58-6.15 299.58-4.4L299.58-4.4Q299.58-1.7 296.78-0.63 293.98 0.45 289.2 0.45 284.43 0.45 281.58-0.85ZM318.03 0.45L318.03 0.45Q314.28 0.45 311.58-0.2 308.88-0.85 306.68-2.5L306.68-2.5Q302.13-5.8 302.13-14.8L302.13-14.8Q302.13-22.8 306.78-26.25L306.78-26.25Q311.13-29.45 318.03-29.45L318.03-29.45Q320.98-29.45 323.08-29.18 325.18-28.9 327.35-28 329.53-27.1 330.85-25.55 332.18-24 333.03-21.28 333.88-18.55 333.88-14.8L333.88-14.8Q333.88-7.2 329.58-3.38 325.28 0.45 318.03 0.45ZM316.28-9.3Q316.63-7.5 317-7.15 317.38-6.8 318-6.8 318.63-6.8 319-7.15 319.38-7.5 319.7-9.3 320.03-11.1 320.03-13.83 320.03-16.55 319.9-18.03 319.78-19.5 319.6-20.3 319.43-21.1 319.13-21.55L319.13-21.55Q318.68-22.2 318.05-22.2 317.43-22.2 317.03-21.83 316.63-21.45 316.28-19.63 315.93-17.8 315.93-14.45 315.93-11.1 316.28-9.3ZM382.42-16.5L382.42-16.5 382.42-1.2Q382.42-0.65 379.6-0.33 376.77 0 373.75 0 370.72 0 369.82-0.28 368.92-0.55 368.92-1.2L368.92-1.2 368.92-15.05Q368.92-22.2 367.47-22.2L367.47-22.2Q367.12-22.2 366.77-21.9 366.42-21.6 366.42-20.85L366.42-20.85 366.42-1.2Q366.42-0.65 363.6-0.33 360.77 0 357.72 0 354.67 0 353.8-0.28 352.92-0.55 352.92-1.2L352.92-1.2 352.92-15.05Q352.92-20.6 352.22-21.7L352.22-21.7Q351.87-22.2 351.32-22.2L351.32-22.2Q350.37-22.2 350.37-20.85L350.37-20.85 350.37-1.2Q350.37-0.65 347.52-0.33 344.67 0 341.65 0 338.62 0 337.75-0.28 336.87-0.55 336.87-1.2L336.87-1.2 336.87-25.85Q336.87-26.9 339.75-27.95 342.62-29 345.82-29 349.02-29 349.42-27.15L349.42-27.15 349.87-24.95 350.22-24.95Q351.67-27.8 355.02-29L355.02-29Q356.42-29.45 358.62-29.45L358.62-29.45Q363.02-29.45 365.02-24.95L365.02-24.95Q365.67-26.45 368.27-27.95 370.87-29.45 374.02-29.45L374.02-29.45Q378.97-29.45 380.7-26.38 382.42-23.3 382.42-16.5ZM385.92 6.05L385.92 6.05 385.92-25.75Q385.92-26.8 388.72-27.9 391.52-29 394.77-29L394.77-29Q396.27-29 397.12-28.65 397.97-28.3 398.17-27.95L398.17-27.95Q398.37-27.6 398.92-24.95L398.92-24.95 399.32-24.95Q399.42-25.4 400.22-26.35 401.02-27.3 401.85-27.9 402.67-28.5 404.22-28.98 405.77-29.45 407.85-29.45 409.92-29.45 411.62-28.53 413.32-27.6 414.15-26.38 414.97-25.15 415.45-23.28 415.92-21.4 416-20.28 416.07-19.15 416.07-17.03 416.07-14.9 415.92-12.83 415.77-10.75 415.37-8.6 414.97-6.45 414.22-4.9 413.47-3.35 412.32-2.1L412.32-2.1Q410.02 0.4 405.57 0.4L405.57 0.4Q403.97 0.4 402.75-0.08 401.52-0.55 400.92-1.2L400.92-1.2Q399.67-2.55 399.47-3.6L399.47-3.6 399.42-4.1 399.02-4.1 399.72 0.4 399.72 6.05Q399.72 6.6 396.85 6.93 393.97 7.25 390.95 7.25 387.92 7.25 386.92 6.98 385.92 6.7 385.92 6.05ZM402.52-14.65Q402.52-18.9 402.07-20.6 401.62-22.3 400.72-22.3 399.82-22.3 399.42-21.3L399.42-21.3 399.42-8.2Q399.42-6.9 400.77-6.9L400.77-6.9Q402.52-6.9 402.52-14.65L402.52-14.65ZM432.57-36.7L432.57-36.7 432.57-1.2Q432.57-0.65 429.72-0.33 426.87 0 423.84 0 420.82 0 419.94-0.28 419.07-0.55 419.07-1.2L419.07-1.2 419.07-35.8Q419.07-36.9 421.89-37.95 424.72-39 427.97-39L427.97-39Q432.57-39 432.57-36.7ZM445.57 0.45L445.57 0.45Q441.02 0.45 438.42-1.7L438.42-1.7Q437.37-2.6 436.59-4.35 435.82-6.1 435.82-8.45 435.82-10.8 436.94-12.55 438.07-14.3 439.67-15.25 441.27-16.2 443.42-16.8L443.42-16.8Q446.67-17.65 450.57-17.65L450.57-17.65 452.22-17.65Q452.22-19.7 450.82-20.55L450.82-20.55Q450.22-20.9 448.99-20.9 447.77-20.9 446.04-20.25 444.32-19.6 443.17-18.93 442.02-18.25 441.62-18.25L441.62-18.25Q440.72-18.25 439.17-20.63 437.62-23 437.62-24.95L437.62-24.95Q437.62-25.6 439.47-26.65 441.32-27.7 444.69-28.58 448.07-29.45 451.27-29.45 454.47-29.45 456.79-28.93 459.12-28.4 460.59-27.65 462.07-26.9 463.09-25.65 464.12-24.4 464.64-23.4 465.17-22.4 465.42-20.8L465.42-20.8Q465.77-18.95 465.77-16.25L465.77-16.25 465.77-1.2Q465.77-0.65 463.09-0.33 460.42 0 457.79 0 455.17 0 454.39-0.15 453.62-0.3 453.47-0.5 453.32-0.7 453.22-1.2L453.22-1.2 452.82-4.05 452.42-4.05Q451.17 0.45 445.57 0.45ZM452.27-7.85L452.27-7.85 452.27-13.7Q450.97-13.7 450.17-12.6 449.37-11.5 449.37-10.1L449.37-10.1Q449.37-6.8 450.87-6.8L450.87-6.8Q451.52-6.8 451.89-7.13 452.27-7.45 452.27-7.85ZM483.01-25.85L483.01-25.85 483.01-1.2Q483.01-0.65 480.14-0.33 477.26 0 474.24 0 471.21 0 470.34-0.28 469.46-0.55 469.46-1.2L469.46-1.2 469.46-24.95Q469.46-26.05 472.29-27.13 475.11-28.2 478.46-28.2L478.46-28.2Q483.01-28.2 483.01-25.85ZM476.21-39L476.21-39Q479.51-39 481.39-38.02 483.26-37.05 483.26-34.5L483.26-34.5Q483.26-30 476.26-30 469.26-30 469.26-34.5 469.26-39 476.21-39ZM516.91-16.6L516.91-16.6 516.91-1.2Q516.91-0.65 514.06-0.33 511.21 0 508.19 0 505.16 0 504.29-0.28 503.41-0.55 503.41-1.2L503.41-1.2 503.41-17.1Q503.41-19.35 503.24-20.05 503.06-20.75 502.91-21.3L502.91-21.3Q502.56-22.25 501.66-22.25L501.66-22.25Q500.26-22.25 500.26-20.9L500.26-20.9 500.26-1.2Q500.26-0.65 497.44-0.33 494.61 0 491.59 0 488.56 0 487.66-0.28 486.76-0.55 486.76-1.2L486.76-1.2 486.76-25.85Q486.76-26.9 489.64-27.95 492.51-29 495.71-29 498.91-29 499.31-27.15L499.31-27.15 499.76-24.95 500.11-24.95Q501.56-27.85 505.11-29L505.11-29Q506.56-29.45 508.31-29.45L508.31-29.45Q513.36-29.45 515.13-26.43 516.91-23.4 516.91-16.6ZM521.01-2.4L521.01-2.4Q520.66-3.4 520.66-5.25 520.66-7.1 521.71-8.33 522.76-9.55 525.96-9.55 529.16-9.55 530.23-8.3 531.31-7.05 531.31-4.5L531.31-4.5Q531.31 7.65 523.11 7.65L523.11 7.65Q522.36 7.65 521.63 5.85 520.91 4.05 520.91 3 520.91 1.95 521.26 1.95L521.26 1.95Q522.26 1.95 522.91 1.48 523.56 1 523.71 0.5L523.71 0.5 523.86 0Q521.86 0 521.01-2.4ZM563.15-3.25L563.15-3.25 563.15-6.2 562.75-6.2Q562.5-5.95 562-5.55 561.5-5.15 559.65-4.5 557.8-3.85 555.53-3.85 553.25-3.85 551.53-4.58 549.8-5.3 548.8-6.53 547.8-7.75 547.25-9.8L547.25-9.8Q546.3-13.05 546.3-19L546.3-19 546.3-25.9Q546.3-26.95 549.25-27.98 552.2-29 555.45-29L555.45-29Q559.8-29 559.8-26.75L559.8-26.75 559.8-20.45Q559.8-10.45 561.4-10.45L561.4-10.45Q562.35-10.45 562.35-11.8L562.35-11.8 562.35-25.9Q562.35-26.95 565.5-27.98 568.65-29 572.25-29 575.85-29 575.85-27.05L575.85-27.05 575.85-3.4Q575.85 7.75 560.75 7.75L560.75 7.75Q552.8 7.75 549.95 6.2L549.95 6.2Q548.7 5.5 548.7 4.75L548.7 4.75Q548.7 3.55 549.7 0.73 550.7-2.1 551.55-2.1L551.55-2.1Q551.75-2.1 552.95-1.8L552.95-1.8Q556.65-0.8 559.13-0.8 561.6-0.8 562.38-1.35 563.15-1.9 563.15-3.25ZM594.75 0.45L594.75 0.45Q591 0.45 588.3-0.2 585.6-0.85 583.4-2.5L583.4-2.5Q578.85-5.8 578.85-14.8L578.85-14.8Q578.85-22.8 583.5-26.25L583.5-26.25Q587.85-29.45 594.75-29.45L594.75-29.45Q597.7-29.45 599.8-29.18 601.9-28.9 604.07-28 606.25-27.1 607.57-25.55 608.9-24 609.75-21.28 610.6-18.55 610.6-14.8L610.6-14.8Q610.6-7.2 606.3-3.38 602 0.45 594.75 0.45ZM593-9.3Q593.35-7.5 593.72-7.15 594.1-6.8 594.72-6.8 595.35-6.8 595.72-7.15 596.1-7.5 596.42-9.3 596.75-11.1 596.75-13.83 596.75-16.55 596.62-18.03 596.5-19.5 596.32-20.3 596.15-21.1 595.85-21.55L595.85-21.55Q595.4-22.2 594.77-22.2 594.15-22.2 593.75-21.83 593.35-21.45 593-19.63 592.65-17.8 592.65-14.45 592.65-11.1 593-9.3ZM623.65 0.45L623.65 0.45Q618.05 0.45 615.82-2.45 613.6-5.35 613.6-12.55L613.6-12.55 613.6-26.15Q613.6-27.15 616.55-28.08 619.5-29 622.75-29L622.75-29Q627.1-29 627.1-26.75L627.1-26.75 627.1-14.05Q627.1-10.25 627.4-8.53 627.7-6.8 628.9-6.8L628.9-6.8Q630.5-6.8 630.5-8.15L630.5-8.15 630.5-26.15Q630.5-27.2 633.6-28.1 636.7-29 640.35-29 644-29 644-27.05L644-27.05 644-1.3Q644-0.6 640.85-0.3 637.7 0 634.65 0 631.6 0 631.55-0.8L631.55-0.8 631.05-4.05 630.65-4.05Q630.2-2.25 628.85-1.1L628.85-1.1Q628.15-0.5 626.77-0.03 625.4 0.45 623.65 0.45ZM704.29-16.5L704.29-16.5 704.29-1.2Q704.29-0.65 701.47-0.33 698.64 0 695.62 0 692.59 0 691.69-0.28 690.79-0.55 690.79-1.2L690.79-1.2 690.79-15.05Q690.79-22.2 689.34-22.2L689.34-22.2Q688.99-22.2 688.64-21.9 688.29-21.6 688.29-20.85L688.29-20.85 688.29-1.2Q688.29-0.65 685.47-0.33 682.64 0 679.59 0 676.54 0 675.67-0.28 674.79-0.55 674.79-1.2L674.79-1.2 674.79-15.05Q674.79-20.6 674.09-21.7L674.09-21.7Q673.74-22.2 673.19-22.2L673.19-22.2Q672.24-22.2 672.24-20.85L672.24-20.85 672.24-1.2Q672.24-0.65 669.39-0.33 666.54 0 663.52 0 660.49 0 659.62-0.28 658.74-0.55 658.74-1.2L658.74-1.2 658.74-25.85Q658.74-26.9 661.62-27.95 664.49-29 667.69-29 670.89-29 671.29-27.15L671.29-27.15 671.74-24.95 672.09-24.95Q673.54-27.8 676.89-29L676.89-29Q678.29-29.45 680.49-29.45L680.49-29.45Q684.89-29.45 686.89-24.95L686.89-24.95Q687.54-26.45 690.14-27.95 692.74-29.45 695.89-29.45L695.89-29.45Q700.84-29.45 702.57-26.38 704.29-23.3 704.29-16.5ZM717.29 0.45L717.29 0.45Q712.74 0.45 710.14-1.7L710.14-1.7Q709.09-2.6 708.31-4.35 707.54-6.1 707.54-8.45 707.54-10.8 708.66-12.55 709.79-14.3 711.39-15.25 712.99-16.2 715.14-16.8L715.14-16.8Q718.39-17.65 722.29-17.65L722.29-17.65 723.94-17.65Q723.94-19.7 722.54-20.55L722.54-20.55Q721.94-20.9 720.71-20.9 719.49-20.9 717.76-20.25 716.04-19.6 714.89-18.93 713.74-18.25 713.34-18.25L713.34-18.25Q712.44-18.25 710.89-20.63 709.34-23 709.34-24.95L709.34-24.95Q709.34-25.6 711.19-26.65 713.04-27.7 716.41-28.58 719.79-29.45 722.99-29.45 726.19-29.45 728.51-28.93 730.84-28.4 732.31-27.65 733.79-26.9 734.81-25.65 735.84-24.4 736.36-23.4 736.89-22.4 737.14-20.8L737.14-20.8Q737.49-18.95 737.49-16.25L737.49-16.25 737.49-1.2Q737.49-0.65 734.81-0.33 732.14 0 729.51 0 726.89 0 726.11-0.15 725.34-0.3 725.19-0.5 725.04-0.7 724.94-1.2L724.94-1.2 724.54-4.05 724.14-4.05Q722.89 0.45 717.29 0.45ZM723.99-7.85L723.99-7.85 723.99-13.7Q722.69-13.7 721.89-12.6 721.09-11.5 721.09-10.1L721.09-10.1Q721.09-6.8 722.59-6.8L722.59-6.8Q723.24-6.8 723.61-7.13 723.99-7.45 723.99-7.85ZM754.49-1.2Q754.49-0.65 751.69-0.33 748.89 0 745.84 0 742.79 0 741.89-0.28 740.99-0.55 740.99-1.2L740.99-1.2 740.99-35.8Q740.99-36.9 743.81-37.95 746.64-39 749.89-39L749.89-39Q754.49-39 754.49-36.7L754.49-36.7 754.49-18 755.14-18Q757.54-29.45 758.69-29.45L758.69-29.45Q761.59-29.45 765.69-28.1 769.79-26.75 769.79-25.1L769.79-25.1Q769.79-23.9 767.79-20.5 765.79-17.1 763.64-14.95L763.64-14.95Q770.79-6.4 770.79-4.8L770.79-4.8Q770.79-3.3 766.24-1.15 761.69 1 759.84 1L759.84 1Q758.94 1 757.94-1.18 756.94-3.35 755.79-7.7L755.79-7.7 754.49-6.15 754.49-1.2ZM787.58-11.3L785.93-11.3Q785.93-8.05 789.03-8.05L789.03-8.05Q790.83-8.05 793.73-9.28 796.63-10.5 796.78-10.5L796.78-10.5Q797.73-10.5 799.28-7.65 800.83-4.8 800.83-3.45L800.83-3.45Q800.83-1.5 796.83-0.5 792.83 0.5 789.01 0.5 785.18 0.5 782.61-0.1 780.03-0.7 778.41-1.63 776.78-2.55 775.56-3.9 774.33-5.25 773.73-6.48 773.13-7.7 772.78-9.2L772.78-9.2Q772.28-11.4 772.28-13.75L772.28-13.75Q772.28-22.85 777.03-26.3L777.03-26.3Q779.38-28.05 782.28-28.75 785.18-29.45 789.13-29.45L789.13-29.45Q801.78-29.45 801.78-20.65L801.78-20.65Q801.78-11.3 787.58-11.3L787.58-11.3ZM785.83-18.6L785.83-18.6 785.83-15.3Q787.28-15.3 788.21-16.45 789.13-17.6 789.13-19.25L789.13-19.25Q789.13-22.25 787.58-22.25L787.58-22.25Q785.83-22.25 785.83-18.6ZM832.88-3.25L832.88-3.25 832.88-6.2 832.48-6.2Q832.23-5.95 831.73-5.55 831.23-5.15 829.38-4.5 827.53-3.85 825.25-3.85 822.98-3.85 821.25-4.58 819.53-5.3 818.53-6.53 817.53-7.75 816.98-9.8L816.98-9.8Q816.03-13.05 816.03-19L816.03-19 816.03-25.9Q816.03-26.95 818.98-27.98 821.93-29 825.18-29L825.18-29Q829.53-29 829.53-26.75L829.53-26.75 829.53-20.45Q829.53-10.45 831.13-10.45L831.13-10.45Q832.08-10.45 832.08-11.8L832.08-11.8 832.08-25.9Q832.08-26.95 835.23-27.98 838.38-29 841.98-29 845.58-29 845.58-27.05L845.58-27.05 845.58-3.4Q845.58 7.75 830.48 7.75L830.48 7.75Q822.53 7.75 819.68 6.2L819.68 6.2Q818.43 5.5 818.43 4.75L818.43 4.75Q818.43 3.55 819.43 0.73 820.43-2.1 821.28-2.1L821.28-2.1Q821.48-2.1 822.68-1.8L822.68-1.8Q826.38-0.8 828.85-0.8 831.33-0.8 832.1-1.35 832.88-1.9 832.88-3.25ZM864.48 0.45L864.48 0.45Q860.73 0.45 858.03-0.2 855.33-0.85 853.13-2.5L853.13-2.5Q848.58-5.8 848.58-14.8L848.58-14.8Q848.58-22.8 853.23-26.25L853.23-26.25Q857.58-29.45 864.48-29.45L864.48-29.45Q867.43-29.45 869.53-29.18 871.63-28.9 873.8-28 875.98-27.1 877.3-25.55 878.63-24 879.48-21.28 880.33-18.55 880.33-14.8L880.33-14.8Q880.33-7.2 876.03-3.38 871.73 0.45 864.48 0.45ZM862.73-9.3Q863.08-7.5 863.45-7.15 863.83-6.8 864.45-6.8 865.08-6.8 865.45-7.15 865.83-7.5 866.15-9.3 866.48-11.1 866.48-13.83 866.48-16.55 866.35-18.03 866.23-19.5 866.05-20.3 865.88-21.1 865.58-21.55L865.58-21.55Q865.13-22.2 864.5-22.2 863.88-22.2 863.48-21.83 863.08-21.45 862.73-19.63 862.38-17.8 862.38-14.45 862.38-11.1 862.73-9.3ZM893.37 0.45L893.37 0.45Q887.77 0.45 885.55-2.45 883.32-5.35 883.32-12.55L883.32-12.55 883.32-26.15Q883.32-27.15 886.27-28.08 889.22-29 892.47-29L892.47-29Q896.82-29 896.82-26.75L896.82-26.75 896.82-14.05Q896.82-10.25 897.12-8.53 897.42-6.8 898.62-6.8L898.62-6.8Q900.22-6.8 900.22-8.15L900.22-8.15 900.22-26.15Q900.22-27.2 903.32-28.1 906.42-29 910.07-29 913.72-29 913.72-27.05L913.72-27.05 913.72-1.3Q913.72-0.6 910.57-0.3 907.42 0 904.37 0 901.32 0 901.27-0.8L901.27-0.8 900.77-4.05 900.37-4.05Q899.92-2.25 898.57-1.1L898.57-1.1Q897.87-0.5 896.5-0.03 895.12 0.45 893.37 0.45ZM930.72-15.8L930.72-15.8 930.72-1.2Q930.72-0.65 927.9-0.33 925.07 0 922.05 0 919.02 0 918.12-0.28 917.22-0.55 917.22-1.2L917.22-1.2 917.22-25.85Q917.22-26.8 920-27.9 922.77-29 926.05-29 929.32-29 929.72-27.2L929.72-27.2 930.22-24.9 930.57-24.9Q931.27-26.8 933.92-28.13 936.57-29.45 939.22-29.45 941.87-29.45 942.95-28.6 944.02-27.75 944.02-26.43 944.02-25.1 943.82-23.05 943.62-21 942.85-18.6 942.07-16.2 940.82-16.2L940.82-16.2Q940.32-16.2 937.67-16.95 935.02-17.7 933.3-17.7 931.57-17.7 931.15-17.2 930.72-16.7 930.72-15.8ZM960.12 0.45L960.12 0.45Q951.82 0.45 947.97-1.15L947.97-1.15Q946.02-2 946.02-2.8L946.02-2.8Q946.02-4.85 947.22-7.6 948.42-10.35 949.32-10.35L949.32-10.35Q949.82-10.35 952.69-9.25 955.57-8.15 957.54-8.15 959.52-8.15 960.14-8.4 960.77-8.65 960.77-9.38 960.77-10.1 959.77-10.53 958.77-10.95 957.27-11.1 955.77-11.25 954.04-11.7 952.32-12.15 950.82-12.85 949.32-13.55 948.32-15.18 947.32-16.8 947.32-18.68 947.32-20.55 947.42-21.48 947.52-22.4 948.24-24.08 948.97-25.75 950.29-26.8 951.62-27.85 954.39-28.7 957.17-29.55 960.62-29.55 964.07-29.55 966.39-29.33 968.72-29.1 970.04-28.75 971.37-28.4 972.22-27.95L972.22-27.95Q973.67-27.2 973.67-26.3L973.67-26.3Q973.67-24.35 972.27-21.8 970.87-19.25 970.04-19.25 969.22-19.25 966.47-20.13 963.72-21 962.42-21L962.42-21Q960.32-21 960.32-19.8L960.32-19.8Q960.32-19.05 961.74-18.68 963.17-18.3 965.17-17.9 967.17-17.5 969.19-16.78 971.22-16.05 972.64-14.15 974.07-12.25 974.07-9.35L974.07-9.35Q974.07 0.45 960.12 0.45ZM991.87-11.3L990.22-11.3Q990.22-8.05 993.32-8.05L993.32-8.05Q995.12-8.05 998.02-9.28 1000.92-10.5 1001.07-10.5L1001.07-10.5Q1002.02-10.5 1003.57-7.65 1005.12-4.8 1005.12-3.45L1005.12-3.45Q1005.12-1.5 1001.12-0.5 997.12 0.5 993.29 0.5 989.47 0.5 986.89-0.1 984.32-0.7 982.69-1.63 981.07-2.55 979.84-3.9 978.62-5.25 978.02-6.48 977.42-7.7 977.07-9.2L977.07-9.2Q976.57-11.4 976.57-13.75L976.57-13.75Q976.57-22.85 981.32-26.3L981.32-26.3Q983.67-28.05 986.57-28.75 989.47-29.45 993.42-29.45L993.42-29.45Q1006.07-29.45 1006.07-20.65L1006.07-20.65Q1006.07-11.3 991.87-11.3L991.87-11.3ZM990.12-18.6L990.12-18.6 990.12-15.3Q991.57-15.3 992.49-16.45 993.42-17.6 993.42-19.25L993.42-19.25Q993.42-22.25 991.87-22.25L991.87-22.25Q990.12-22.25 990.12-18.6ZM1022.56-36.7L1022.56-36.7 1022.56-1.2Q1022.56-0.65 1019.71-0.33 1016.86 0 1013.84 0 1010.81 0 1009.94-0.28 1009.06-0.55 1009.06-1.2L1009.06-1.2 1009.06-35.8Q1009.06-36.9 1011.89-37.95 1014.71-39 1017.96-39L1017.96-39Q1022.56-39 1022.56-36.7ZM1048.11-16.5L1042.21-16.5 1042.21-1.2Q1042.21-0.65 1039.46-0.33 1036.71 0 1032.71 0 1028.71 0 1028.71-1.2L1028.71-1.2 1028.71-16.5 1026.16-16.5Q1024.81-16.5 1024.81-21.05L1024.81-21.05Q1024.81-22.85 1025.44-24.43 1026.06-26 1027.06-26L1027.06-26 1028.71-26Q1028.71-29.35 1029.69-31.85 1030.66-34.35 1032.04-35.68 1033.41-37 1035.36-37.8L1035.36-37.8Q1038.26-39 1041.96-39L1041.96-39Q1051.26-39 1051.26-35.95L1051.26-35.95Q1051.26-32.65 1050.61-30.55 1049.96-28.45 1048.86-28.45L1048.86-28.45Q1048.41-28.45 1047.19-28.78 1045.96-29.1 1044.86-29.1L1044.86-29.1Q1041.96-29.1 1041.96-27.1L1041.96-27.1Q1041.96-26.6 1042.21-26L1042.21-26 1048.86-26Q1050.21-26 1050.21-21.6L1050.21-21.6Q1050.21-19.65 1049.64-18.07 1049.06-16.5 1048.11-16.5L1048.11-16.5ZM1074.76 0.45L1074.76 0.45Q1070.21 0.45 1067.61-1.7L1067.61-1.7Q1066.56-2.6 1065.78-4.35 1065.01-6.1 1065.01-8.45 1065.01-10.8 1066.13-12.55 1067.26-14.3 1068.86-15.25 1070.46-16.2 1072.61-16.8L1072.61-16.8Q1075.86-17.65 1079.76-17.65L1079.76-17.65 1081.41-17.65Q1081.41-19.7 1080.01-20.55L1080.01-20.55Q1079.41-20.9 1078.18-20.9 1076.96-20.9 1075.23-20.25 1073.51-19.6 1072.36-18.93 1071.21-18.25 1070.81-18.25L1070.81-18.25Q1069.91-18.25 1068.36-20.63 1066.81-23 1066.81-24.95L1066.81-24.95Q1066.81-25.6 1068.66-26.65 1070.51-27.7 1073.88-28.58 1077.26-29.45 1080.46-29.45 1083.66-29.45 1085.98-28.93 1088.31-28.4 1089.78-27.65 1091.26-26.9 1092.28-25.65 1093.31-24.4 1093.83-23.4 1094.36-22.4 1094.61-20.8L1094.61-20.8Q1094.96-18.95 1094.96-16.25L1094.96-16.25 1094.96-1.2Q1094.96-0.65 1092.28-0.33 1089.61 0 1086.98 0 1084.36 0 1083.58-0.15 1082.81-0.3 1082.66-0.5 1082.51-0.7 1082.41-1.2L1082.41-1.2 1082.01-4.05 1081.61-4.05Q1080.36 0.45 1074.76 0.45ZM1081.46-7.85L1081.46-7.85 1081.46-13.7Q1080.16-13.7 1079.36-12.6 1078.56-11.5 1078.56-10.1L1078.56-10.1Q1078.56-6.8 1080.06-6.8L1080.06-6.8Q1080.71-6.8 1081.08-7.13 1081.46-7.45 1081.46-7.85ZM1108.2-25.45L1108.2-25.45Q1108.2-25.95 1109.65-26.78 1111.1-27.6 1113.6-28.3 1116.1-29 1118.5-29L1118.5-29Q1123.35-29 1123.5-26.65L1123.5-26.65 1124.75-10.75 1125.4-10.75 1126.5-25.85Q1126.6-27.1 1129.95-28.05 1133.3-29 1135.85-29 1138.4-29 1139.68-28.55 1140.95-28.1 1141.3-27.63 1141.65-27.15 1141.65-26.8 1141.65-26.45 1139.53-21.65 1137.4-16.85 1131.05-1.2L1131.05-1.2Q1130.55 0 1122.9 0L1122.9 0Q1120.5 0 1119.75-0.28 1119-0.55 1118.75-1.2L1118.75-1.2Q1115.3-9.9 1111.75-17.57 1108.2-25.25 1108.2-25.45ZM1157.4-25.85L1157.4-25.85 1157.4-1.2Q1157.4-0.65 1154.52-0.33 1151.65 0 1148.62 0 1145.6 0 1144.72-0.28 1143.85-0.55 1143.85-1.2L1143.85-1.2 1143.85-24.95Q1143.85-26.05 1146.67-27.13 1149.5-28.2 1152.85-28.2L1152.85-28.2Q1157.4-28.2 1157.4-25.85ZM1150.6-39L1150.6-39Q1153.9-39 1155.77-38.02 1157.65-37.05 1157.65-34.5L1157.65-34.5Q1157.65-30 1150.65-30 1143.65-30 1143.65-34.5 1143.65-39 1150.6-39ZM1167.6-0.85L1167.6-0.85Q1166.4-1.4 1165.02-2.5 1163.65-3.6 1162.75-5.1L1162.75-5.1Q1160.65-8.7 1160.65-14.5L1160.65-14.5Q1160.65-18.1 1161.8-20.93 1162.95-23.75 1164.6-25.3 1166.25-26.85 1168.4-27.85L1168.4-27.85Q1171.85-29.45 1175.3-29.45L1175.3-29.45Q1181.1-29.45 1183.37-28.55 1185.65-27.65 1185.65-25.5 1185.65-23.35 1184.87-20.93 1184.1-18.5 1182.85-18.5L1182.85-18.5Q1182.45-18.5 1180.42-19.35 1178.4-20.2 1176.92-20.2 1175.45-20.2 1174.67-19.03 1173.9-17.85 1173.9-14.48 1173.9-11.1 1174.6-9.88 1175.3-8.65 1176.77-8.65 1178.25-8.65 1180.45-9.65 1182.65-10.65 1182.9-10.65L1182.9-10.65Q1183.85-10.65 1184.72-8.4 1185.6-6.15 1185.6-4.4L1185.6-4.4Q1185.6-1.7 1182.8-0.63 1180 0.45 1175.22 0.45 1170.45 0.45 1167.6-0.85ZM1208.29-0.45Q1207.39 0.4 1204.19 0.4 1200.99 0.4 1198.89-0.03 1196.79-0.45 1194.89-1.7L1194.89-1.7Q1191.24-4.15 1191.24-11.9L1191.24-11.9 1191.24-19.7 1188.74-19.7Q1188.19-19.7 1187.79-20.85 1187.39-22 1187.39-24 1187.39-26 1188.02-27.53 1188.64-29.05 1189.64-29.05L1189.64-29.05 1191.24-29.05 1191.24-35.1Q1191.24-36.65 1194.27-37.6 1197.29-38.55 1200.19-38.55L1200.19-38.55Q1204.74-38.55 1204.74-36.3L1204.74-36.3 1204.74-29.05 1208.44-29.05Q1209.74-29.05 1209.74-25.3L1209.74-25.3Q1209.74-22.85 1209.17-21.28 1208.59-19.7 1207.69-19.7L1207.69-19.7 1204.74-19.7 1204.74-10.55Q1204.74-9.2 1205.89-8.63 1207.04-8.05 1207.92-8.05 1208.79-8.05 1208.99-7.2 1209.19-6.35 1209.19-4.65L1209.19-4.65Q1209.19-1.3 1208.29-0.45ZM1226.49-25.85L1226.49-25.85 1226.49-1.2Q1226.49-0.65 1223.62-0.33 1220.74 0 1217.72 0 1214.69 0 1213.82-0.28 1212.94-0.55 1212.94-1.2L1212.94-1.2 1212.94-24.95Q1212.94-26.05 1215.77-27.13 1218.59-28.2 1221.94-28.2L1221.94-28.2Q1226.49-28.2 1226.49-25.85ZM1219.69-39L1219.69-39Q1222.99-39 1224.87-38.02 1226.74-37.05 1226.74-34.5L1226.74-34.5Q1226.74-30 1219.74-30 1212.74-30 1212.74-34.5 1212.74-39 1219.69-39ZM1275.79-16.5L1275.79-16.5 1275.79-1.2Q1275.79-0.65 1272.96-0.33 1270.14 0 1267.11 0 1264.09 0 1263.19-0.28 1262.29-0.55 1262.29-1.2L1262.29-1.2 1262.29-15.05Q1262.29-22.2 1260.84-22.2L1260.84-22.2Q1260.49-22.2 1260.14-21.9 1259.79-21.6 1259.79-20.85L1259.79-20.85 1259.79-1.2Q1259.79-0.65 1256.96-0.33 1254.14 0 1251.09 0 1248.04 0 1247.16-0.28 1246.29-0.55 1246.29-1.2L1246.29-1.2 1246.29-15.05Q1246.29-20.6 1245.59-21.7L1245.59-21.7Q1245.24-22.2 1244.69-22.2L1244.69-22.2Q1243.74-22.2 1243.74-20.85L1243.74-20.85 1243.74-1.2Q1243.74-0.65 1240.89-0.33 1238.04 0 1235.01 0 1231.99 0 1231.11-0.28 1230.24-0.55 1230.24-1.2L1230.24-1.2 1230.24-25.85Q1230.24-26.9 1233.11-27.95 1235.99-29 1239.19-29 1242.39-29 1242.79-27.15L1242.79-27.15 1243.24-24.95 1243.59-24.95Q1245.04-27.8 1248.39-29L1248.39-29Q1249.79-29.45 1251.99-29.45L1251.99-29.45Q1256.39-29.45 1258.39-24.95L1258.39-24.95Q1259.04-26.45 1261.64-27.95 1264.24-29.45 1267.39-29.45L1267.39-29.45Q1272.34-29.45 1274.06-26.38 1275.79-23.3 1275.79-16.5Z" opacity="1" transform="matrix(1,0,0,1,0,0)" fill="#000000" class="slogan-text-1" data-fill-palette-color="secondary" id="text-1"></path></svg></g></svg></g></svg></g></svg></g><g transform="matrix(1,0,0,1,167.40070996229625,0)"><svg viewBox="0 0 62.696180075407405 61.442256473899256" height="61.442256473899256" width="62.696180075407405"><g><svg xmlns="http://www.w3.org/2000/svg" data-name="Layer 1" viewBox="0 1 100 98" x="0" y="0" height="61.442256473899256" width="62.696180075407405" class="icon-icon-0" data-fill-palette-color="accent" id="icon-0"><path d="M5 59H25V41H5ZM9 45H21V55H9Z" fill="#000000" data-fill-palette-color="accent"></path><path d="M5 72h8V87.5H26V94H36v5H64V94H74V87.5H87V72h8V64h5V36H95V28H87V13.33H74V6H64V1H36V6H26v7.33H13V28H5v8H0V64H5Zm4-8H21v4H9ZM30 90V80h6V90Zm30 5H40V75H60Zm10-5H64V80h6ZM91 68H79V64H91Zm5-8H74V40H96ZM91 36H79V32H91ZM70 10V20H64V10ZM40 5H60V25H40ZM30 10h6V20H30ZM17 17.33h9V24H36v5H64V24H74V17.33h9V28H75v8H70V64h5v8h8V83.5H74V76H64V71H36v5H26v7.5H17V72h8V64h5V36H25V28H17ZM9 32H21v4H9ZM4 40H26V60H4Z" fill="#000000" data-fill-palette-color="accent"></path><path d="M41 24H59V6H41Zm4-14H55V20H45Z" fill="#000000" data-fill-palette-color="accent"></path><path d="M59 76H41V94H59ZM55 90H45V80H55Z" fill="#000000" data-fill-palette-color="accent"></path><path d="M95 41H75V59H95ZM91 55H79V45H91Z" fill="#000000" data-fill-palette-color="accent"></path></svg></g></svg></g><g></g></svg></g><defs></defs></svg><rect width="395.52" height="121.44380371263192" fill="none" stroke="none" visibility="hidden"></rect></g></svg></g></svg>